# xmcd
#
# Track frame offsets:
#	150
#	13055
#	22960
#	37750
#	48670
#	59295
#	72247
#	85242
#	98845
#	108925
#	118302
#	129650
#	142315
#	152577
#	163545
#	174905
#	186305
#	197175
#	208225
#	222067
#	232425
#	245182
#	256577
#	267760
#	278780
#	289655
#
# Disc length: 4005 seconds
# Revision: 0
# Processed by: cddbd v1.5.2PL0 Copyright (c) Steve Scherf et al.
# Submitted via: dBpowerAMP V12.0
#
DISCID=870fa31a
DTITLE=Various Artist - The OKeh Rhythm and Blues Story 1949-1957, Disc 3
DYEAR=1995
DGENRE=Rhythm and Blues
TTITLE0=Clifford Solomon - But Officer!
TTITLE1=Sammy Cotton - Give Me One More Drink
TTITLE2=Annie Laurie - Leave It to Me
TTITLE3=Clifford Solomon - Square Dance Boogie
TTITLE4=Big John and the Buzzards - Your Cash Ain't Nothing But Trash
TTITLE5=Big Maybelle - One Monkey Don't Stop No Show
TTITLE6=Titus Turner - My Lonely Room
TTITLE7=The Treniers - Uh Oh (Get Out of My Car)
TTITLE8=Paul Gayten - Creole Alley
TTITLE9=Larry Darnell - Give Me Your Love
TTITLE10=Shufflers - Bad, Bad Women
TTITLE11=Big Maybelle - I'm Gettin' 'Long Alright
TTITLE12=Big John and the Buzzards - Oop Shoop
TTITLE13=Shufflers - Jump Ted!
TTITLE14=Big Maybelle - Ocean of Tears
TTITLE15=Chuck Willis - Ring Ding Doo
TTITLE16=Screamin' Jay Hawkins - Little Demon
TTITLE17=Screamin' Jay Hawkins - I Put a Spell on You
TTITLE18=Andre Williams - Bacon Fat
TTITLE19=Hurricane Harry - The Last Meal
TTITLE20=Little Joe and the Thrillers - Let's Do the Slop
TTITLE21=Lloyd Fatman - Where You Been
TTITLE22=Lloyd Fatman - Miss Mushmouth
TTITLE23=Marquees - Wyatt Earp
TTITLE24=Billy Stewart - Billy's Heartache
TTITLE25=Screamin' Jay Hawkins - Yellow Coat
EXTD=
EXTT0=
EXTT1=
EXTT2=
EXTT3=
EXTT4=
EXTT5=
EXTT6=
EXTT7=
EXTT8=
EXTT9=
EXTT10=
EXTT11=
EXTT12=
EXTT13=
EXTT14=
EXTT15=
EXTT16=
EXTT17=
EXTT18=
EXTT19=
EXTT20=
EXTT21=
EXTT22=
EXTT23=
EXTT24=
EXTT25=
PLAYORDER=
